<svg width="201" height="201" viewBox="0 0 201 201" fill="none" xmlns="http://www.w3.org/2000/svg">
    <rect x="0.86026" y="0.5" width="200" height="200" fill="#1E1E1E" />
    <rect x="20.8603" y="20.5" width="160" height="160" fill="white" />
    <path
        d="M104.543 169.012L96.9505 144.192H58.9905L51.3985 169.012H27.6005L64.3925 64.3299H91.4025L128.341 169.012H104.543ZM84.1025 101.414C83.6159 99.7593 82.9832 97.6666 82.2045 95.1359C81.4259 92.6053 80.6472 90.0259 79.8685 87.3979C79.0899 84.7699 78.4572 82.4826 77.9705 80.5359C77.4839 82.4826 76.8025 84.9159 75.9265 87.8359C75.1479 90.6586 74.3692 93.3839 73.5905 96.0119C72.9092 98.5426 72.3739 100.343 71.9845 101.414L64.5385 125.65H91.6945L84.1025 101.414ZM151.179 144.338L164.319 157.624L151.325 170.764L138.185 157.478L151.179 144.338Z"
        fill="black" />
    <rect x="133.393" y="28.2854" width="36" height="36" fill="black" />
    <line x1="142.568" y1="55.7995" x2="160.953" y2="37.4147" stroke="white" stroke-width="4" />
    <line x1="142.486" y1="37.4147" x2="160.871" y2="55.7995" stroke="white" stroke-width="4" />
</svg>